<mxfile host="app.diagrams.net" agent="Mozilla/5.0 (X11; Linux x86_64) AppleWebKit/537.36 (KHTML, like Gecko) Chrome/136.0.0.0 Safari/537.36" version="26.3.0">
  <diagram name="Page-1" id="MwVfZ_kmh55VOKtCk7Vx">
    <mxGraphModel dx="2017" dy="1715" grid="1" gridSize="10" guides="1" tooltips="1" connect="1" arrows="1" fold="1" page="1" pageScale="1" pageWidth="850" pageHeight="1100" math="0" shadow="0">
      <root>
        <mxCell id="0" />
        <mxCell id="1" parent="0" />
        <mxCell id="BlUNrkRk35IxwMllR4_r-45" value="have" style="rhombus;whiteSpace=wrap;html=1;" vertex="1" parent="1">
          <mxGeometry x="570" y="790" width="80" height="80" as="geometry" />
        </mxCell>
        <mxCell id="BlUNrkRk35IxwMllR4_r-46" value="" style="endArrow=none;html=1;rounded=0;entryX=0.5;entryY=1;entryDx=0;entryDy=0;exitX=0.5;exitY=0;exitDx=0;exitDy=0;" edge="1" source="BlUNrkRk35IxwMllR4_r-45" parent="1" target="BlUNrkRk35IxwMllR4_r-32">
          <mxGeometry width="50" height="50" relative="1" as="geometry">
            <mxPoint x="520" y="760" as="sourcePoint" />
            <mxPoint x="350" y="720" as="targetPoint" />
          </mxGeometry>
        </mxCell>
        <mxCell id="BlUNrkRk35IxwMllR4_r-47" value="" style="endArrow=none;html=1;rounded=0;entryX=0.5;entryY=1;entryDx=0;entryDy=0;exitX=0.25;exitY=0;exitDx=0;exitDy=0;shape=link;" edge="1" target="BlUNrkRk35IxwMllR4_r-45" parent="1" source="BlUNrkRk35IxwMllR4_r-23">
          <mxGeometry width="50" height="50" relative="1" as="geometry">
            <mxPoint x="350" y="960" as="sourcePoint" />
            <mxPoint x="349" y="870" as="targetPoint" />
          </mxGeometry>
        </mxCell>
        <mxCell id="tnMj4dc2GbIXgGItkEYh-1" value="Student" style="rounded=0;whiteSpace=wrap;html=1;" parent="1" vertex="1">
          <mxGeometry x="100" y="40" width="120" height="60" as="geometry" />
        </mxCell>
        <mxCell id="tnMj4dc2GbIXgGItkEYh-2" value="department" style="rounded=0;whiteSpace=wrap;html=1;" parent="1" vertex="1">
          <mxGeometry x="100" y="310" width="120" height="60" as="geometry" />
        </mxCell>
        <mxCell id="tnMj4dc2GbIXgGItkEYh-4" value="Course" style="rounded=0;whiteSpace=wrap;html=1;" parent="1" vertex="1">
          <mxGeometry x="490" y="40" width="120" height="60" as="geometry" />
        </mxCell>
        <mxCell id="tnMj4dc2GbIXgGItkEYh-5" value="Topic" style="rounded=0;whiteSpace=wrap;html=1;" parent="1" vertex="1">
          <mxGeometry x="330" y="-225" width="120" height="60" as="geometry" />
        </mxCell>
        <mxCell id="tnMj4dc2GbIXgGItkEYh-6" value="Instructors" style="rounded=0;whiteSpace=wrap;html=1;" parent="1" vertex="1">
          <mxGeometry x="590" y="270" width="120" height="60" as="geometry" />
        </mxCell>
        <mxCell id="tnMj4dc2GbIXgGItkEYh-7" value="&lt;u&gt;st_id&lt;/u&gt;" style="ellipse;whiteSpace=wrap;html=1;" parent="1" vertex="1">
          <mxGeometry x="220" y="-70" width="100" height="40" as="geometry" />
        </mxCell>
        <mxCell id="tnMj4dc2GbIXgGItkEYh-8" value="studentName" style="ellipse;whiteSpace=wrap;html=1;" parent="1" vertex="1">
          <mxGeometry x="100" y="-70" width="100" height="40" as="geometry" />
        </mxCell>
        <mxCell id="tnMj4dc2GbIXgGItkEYh-9" value="&lt;u&gt;st_id&lt;/u&gt;" style="ellipse;whiteSpace=wrap;html=1;" parent="1" vertex="1">
          <mxGeometry x="-10" y="-30" width="100" height="40" as="geometry" />
        </mxCell>
        <mxCell id="tnMj4dc2GbIXgGItkEYh-10" value="&lt;u&gt;st_age&lt;/u&gt;" style="ellipse;whiteSpace=wrap;html=1;" parent="1" vertex="1">
          <mxGeometry x="-10" y="-30" width="100" height="40" as="geometry" />
        </mxCell>
        <mxCell id="tnMj4dc2GbIXgGItkEYh-11" value="st_address" style="ellipse;whiteSpace=wrap;html=1;" parent="1" vertex="1">
          <mxGeometry x="-70" y="40" width="100" height="40" as="geometry" />
        </mxCell>
        <mxCell id="tnMj4dc2GbIXgGItkEYh-12" value="Lname" style="ellipse;whiteSpace=wrap;html=1;" parent="1" vertex="1">
          <mxGeometry x="140" y="-180" width="100" height="40" as="geometry" />
        </mxCell>
        <mxCell id="tnMj4dc2GbIXgGItkEYh-13" value="Fname" style="ellipse;whiteSpace=wrap;html=1;" parent="1" vertex="1">
          <mxGeometry x="20" y="-160" width="100" height="40" as="geometry" />
        </mxCell>
        <mxCell id="tnMj4dc2GbIXgGItkEYh-14" value="" style="endArrow=none;html=1;rounded=0;entryX=0.5;entryY=1;entryDx=0;entryDy=0;exitX=0.682;exitY=-0.019;exitDx=0;exitDy=0;exitPerimeter=0;" parent="1" source="tnMj4dc2GbIXgGItkEYh-8" target="tnMj4dc2GbIXgGItkEYh-12" edge="1">
          <mxGeometry width="50" height="50" relative="1" as="geometry">
            <mxPoint x="150" y="-70" as="sourcePoint" />
            <mxPoint x="200" y="-120" as="targetPoint" />
          </mxGeometry>
        </mxCell>
        <mxCell id="tnMj4dc2GbIXgGItkEYh-16" value="" style="endArrow=none;html=1;rounded=0;entryX=0.5;entryY=1;entryDx=0;entryDy=0;exitX=0;exitY=0;exitDx=0;exitDy=0;" parent="1" source="tnMj4dc2GbIXgGItkEYh-8" target="tnMj4dc2GbIXgGItkEYh-13" edge="1">
          <mxGeometry width="50" height="50" relative="1" as="geometry">
            <mxPoint x="178" y="-61" as="sourcePoint" />
            <mxPoint x="200" y="-130" as="targetPoint" />
          </mxGeometry>
        </mxCell>
        <mxCell id="tnMj4dc2GbIXgGItkEYh-17" value="" style="endArrow=none;html=1;rounded=0;entryX=0.5;entryY=1;entryDx=0;entryDy=0;exitX=0.5;exitY=0;exitDx=0;exitDy=0;" parent="1" source="tnMj4dc2GbIXgGItkEYh-1" target="tnMj4dc2GbIXgGItkEYh-8" edge="1">
          <mxGeometry width="50" height="50" relative="1" as="geometry">
            <mxPoint x="160" y="50" as="sourcePoint" />
            <mxPoint x="182" y="-29" as="targetPoint" />
          </mxGeometry>
        </mxCell>
        <mxCell id="tnMj4dc2GbIXgGItkEYh-18" value="" style="endArrow=none;html=1;rounded=0;entryX=0.5;entryY=1;entryDx=0;entryDy=0;exitX=0.75;exitY=0;exitDx=0;exitDy=0;" parent="1" source="tnMj4dc2GbIXgGItkEYh-1" target="tnMj4dc2GbIXgGItkEYh-7" edge="1">
          <mxGeometry width="50" height="50" relative="1" as="geometry">
            <mxPoint x="170" y="60" as="sourcePoint" />
            <mxPoint x="160" y="-20" as="targetPoint" />
          </mxGeometry>
        </mxCell>
        <mxCell id="tnMj4dc2GbIXgGItkEYh-19" value="" style="endArrow=none;html=1;rounded=0;entryX=0.5;entryY=1;entryDx=0;entryDy=0;exitX=0;exitY=0;exitDx=0;exitDy=0;" parent="1" source="tnMj4dc2GbIXgGItkEYh-1" edge="1">
          <mxGeometry width="50" height="50" relative="1" as="geometry">
            <mxPoint x="100" y="70" as="sourcePoint" />
            <mxPoint x="70" y="10" as="targetPoint" />
          </mxGeometry>
        </mxCell>
        <mxCell id="tnMj4dc2GbIXgGItkEYh-20" value="" style="endArrow=none;html=1;rounded=0;entryX=1;entryY=0.5;entryDx=0;entryDy=0;exitX=0;exitY=0.5;exitDx=0;exitDy=0;" parent="1" source="tnMj4dc2GbIXgGItkEYh-1" target="tnMj4dc2GbIXgGItkEYh-11" edge="1">
          <mxGeometry width="50" height="50" relative="1" as="geometry">
            <mxPoint x="110" y="80" as="sourcePoint" />
            <mxPoint x="80" y="20" as="targetPoint" />
          </mxGeometry>
        </mxCell>
        <mxCell id="tnMj4dc2GbIXgGItkEYh-23" value="&lt;u&gt;dept_id&lt;/u&gt;" style="ellipse;whiteSpace=wrap;html=1;" parent="1" vertex="1">
          <mxGeometry x="-50" y="240" width="100" height="40" as="geometry" />
        </mxCell>
        <mxCell id="tnMj4dc2GbIXgGItkEYh-24" value="dept_name" style="ellipse;whiteSpace=wrap;html=1;" parent="1" vertex="1">
          <mxGeometry x="-60" y="340" width="100" height="40" as="geometry" />
        </mxCell>
        <mxCell id="tnMj4dc2GbIXgGItkEYh-25" value="" style="endArrow=none;html=1;rounded=0;entryX=0.5;entryY=1;entryDx=0;entryDy=0;exitX=0;exitY=0.25;exitDx=0;exitDy=0;" parent="1" source="tnMj4dc2GbIXgGItkEYh-2" target="tnMj4dc2GbIXgGItkEYh-23" edge="1">
          <mxGeometry width="50" height="50" relative="1" as="geometry">
            <mxPoint x="100" y="290" as="sourcePoint" />
            <mxPoint x="30" y="280" as="targetPoint" />
          </mxGeometry>
        </mxCell>
        <mxCell id="tnMj4dc2GbIXgGItkEYh-26" value="" style="endArrow=none;html=1;rounded=0;entryX=1;entryY=0.5;entryDx=0;entryDy=0;exitX=0;exitY=0.5;exitDx=0;exitDy=0;" parent="1" source="tnMj4dc2GbIXgGItkEYh-2" target="tnMj4dc2GbIXgGItkEYh-24" edge="1">
          <mxGeometry width="50" height="50" relative="1" as="geometry">
            <mxPoint x="110" y="335" as="sourcePoint" />
            <mxPoint x="10" y="290" as="targetPoint" />
          </mxGeometry>
        </mxCell>
        <mxCell id="tnMj4dc2GbIXgGItkEYh-27" value="&lt;u&gt;crs_id&lt;/u&gt;" style="ellipse;whiteSpace=wrap;html=1;" parent="1" vertex="1">
          <mxGeometry x="530" y="-80" width="100" height="40" as="geometry" />
        </mxCell>
        <mxCell id="tnMj4dc2GbIXgGItkEYh-28" value="crs_name" style="ellipse;whiteSpace=wrap;html=1;" parent="1" vertex="1">
          <mxGeometry x="640" y="-30" width="100" height="40" as="geometry" />
        </mxCell>
        <mxCell id="tnMj4dc2GbIXgGItkEYh-29" value="crs_duration" style="ellipse;whiteSpace=wrap;html=1;" parent="1" vertex="1">
          <mxGeometry x="670" y="30" width="100" height="40" as="geometry" />
        </mxCell>
        <mxCell id="tnMj4dc2GbIXgGItkEYh-30" value="crs_description" style="ellipse;whiteSpace=wrap;html=1;" parent="1" vertex="1">
          <mxGeometry x="670" y="110" width="100" height="40" as="geometry" />
        </mxCell>
        <mxCell id="tnMj4dc2GbIXgGItkEYh-31" value="" style="endArrow=none;html=1;rounded=0;entryX=0.5;entryY=1;entryDx=0;entryDy=0;exitX=0.75;exitY=0;exitDx=0;exitDy=0;" parent="1" source="tnMj4dc2GbIXgGItkEYh-4" target="tnMj4dc2GbIXgGItkEYh-27" edge="1">
          <mxGeometry width="50" height="50" relative="1" as="geometry">
            <mxPoint x="500" y="25" as="sourcePoint" />
            <mxPoint x="580" y="-45" as="targetPoint" />
          </mxGeometry>
        </mxCell>
        <mxCell id="tnMj4dc2GbIXgGItkEYh-32" value="" style="endArrow=none;html=1;rounded=0;entryX=0;entryY=1;entryDx=0;entryDy=0;exitX=1;exitY=0;exitDx=0;exitDy=0;" parent="1" source="tnMj4dc2GbIXgGItkEYh-4" target="tnMj4dc2GbIXgGItkEYh-28" edge="1">
          <mxGeometry width="50" height="50" relative="1" as="geometry">
            <mxPoint x="590" y="50" as="sourcePoint" />
            <mxPoint x="590" y="-30" as="targetPoint" />
          </mxGeometry>
        </mxCell>
        <mxCell id="tnMj4dc2GbIXgGItkEYh-33" value="" style="endArrow=none;html=1;rounded=0;entryX=0;entryY=0.5;entryDx=0;entryDy=0;exitX=1;exitY=0.25;exitDx=0;exitDy=0;" parent="1" source="tnMj4dc2GbIXgGItkEYh-4" target="tnMj4dc2GbIXgGItkEYh-29" edge="1">
          <mxGeometry width="50" height="50" relative="1" as="geometry">
            <mxPoint x="620" y="50" as="sourcePoint" />
            <mxPoint x="665" y="14" as="targetPoint" />
          </mxGeometry>
        </mxCell>
        <mxCell id="tnMj4dc2GbIXgGItkEYh-34" value="" style="endArrow=none;html=1;rounded=0;entryX=0;entryY=0;entryDx=0;entryDy=0;exitX=0.999;exitY=0.632;exitDx=0;exitDy=0;exitPerimeter=0;" parent="1" source="tnMj4dc2GbIXgGItkEYh-4" target="tnMj4dc2GbIXgGItkEYh-30" edge="1">
          <mxGeometry width="50" height="50" relative="1" as="geometry">
            <mxPoint x="620" y="65" as="sourcePoint" />
            <mxPoint x="680" y="60" as="targetPoint" />
          </mxGeometry>
        </mxCell>
        <mxCell id="tnMj4dc2GbIXgGItkEYh-35" value="&lt;u&gt;ins_id&lt;/u&gt;" style="ellipse;whiteSpace=wrap;html=1;" parent="1" vertex="1">
          <mxGeometry x="580" y="190" width="100" height="40" as="geometry" />
        </mxCell>
        <mxCell id="tnMj4dc2GbIXgGItkEYh-36" value="ins_name" style="ellipse;whiteSpace=wrap;html=1;" parent="1" vertex="1">
          <mxGeometry x="730" y="230" width="100" height="40" as="geometry" />
        </mxCell>
        <mxCell id="tnMj4dc2GbIXgGItkEYh-37" value="ins_salary" style="ellipse;whiteSpace=wrap;html=1;" parent="1" vertex="1">
          <mxGeometry x="740" y="300" width="100" height="40" as="geometry" />
        </mxCell>
        <mxCell id="tnMj4dc2GbIXgGItkEYh-38" value="ins_houRate" style="ellipse;whiteSpace=wrap;html=1;" parent="1" vertex="1">
          <mxGeometry x="720" y="370" width="100" height="40" as="geometry" />
        </mxCell>
        <mxCell id="tnMj4dc2GbIXgGItkEYh-39" value="ins_bouns" style="ellipse;whiteSpace=wrap;html=1;" parent="1" vertex="1">
          <mxGeometry x="610" y="370" width="100" height="40" as="geometry" />
        </mxCell>
        <mxCell id="tnMj4dc2GbIXgGItkEYh-40" value="ins_address" style="ellipse;whiteSpace=wrap;html=1;" parent="1" vertex="1">
          <mxGeometry x="690" y="180" width="100" height="40" as="geometry" />
        </mxCell>
        <mxCell id="tnMj4dc2GbIXgGItkEYh-43" value="" style="endArrow=none;html=1;rounded=0;entryX=0.5;entryY=1;entryDx=0;entryDy=0;exitX=0.25;exitY=0;exitDx=0;exitDy=0;" parent="1" source="tnMj4dc2GbIXgGItkEYh-6" target="tnMj4dc2GbIXgGItkEYh-35" edge="1">
          <mxGeometry width="50" height="50" relative="1" as="geometry">
            <mxPoint x="620" y="88" as="sourcePoint" />
            <mxPoint x="695" y="126" as="targetPoint" />
          </mxGeometry>
        </mxCell>
        <mxCell id="tnMj4dc2GbIXgGItkEYh-44" value="" style="endArrow=none;html=1;rounded=0;entryX=0;entryY=1;entryDx=0;entryDy=0;exitX=0.5;exitY=0;exitDx=0;exitDy=0;" parent="1" source="tnMj4dc2GbIXgGItkEYh-6" target="tnMj4dc2GbIXgGItkEYh-40" edge="1">
          <mxGeometry width="50" height="50" relative="1" as="geometry">
            <mxPoint x="630" y="280" as="sourcePoint" />
            <mxPoint x="640" y="240" as="targetPoint" />
          </mxGeometry>
        </mxCell>
        <mxCell id="tnMj4dc2GbIXgGItkEYh-45" value="" style="endArrow=none;html=1;rounded=0;entryX=0;entryY=0.5;entryDx=0;entryDy=0;exitX=1;exitY=0;exitDx=0;exitDy=0;" parent="1" source="tnMj4dc2GbIXgGItkEYh-6" target="tnMj4dc2GbIXgGItkEYh-36" edge="1">
          <mxGeometry width="50" height="50" relative="1" as="geometry">
            <mxPoint x="660" y="280" as="sourcePoint" />
            <mxPoint x="715" y="224" as="targetPoint" />
          </mxGeometry>
        </mxCell>
        <mxCell id="tnMj4dc2GbIXgGItkEYh-46" value="" style="endArrow=none;html=1;rounded=0;entryX=0;entryY=0;entryDx=0;entryDy=0;exitX=1;exitY=0.5;exitDx=0;exitDy=0;" parent="1" source="tnMj4dc2GbIXgGItkEYh-6" target="tnMj4dc2GbIXgGItkEYh-37" edge="1">
          <mxGeometry width="50" height="50" relative="1" as="geometry">
            <mxPoint x="720" y="280" as="sourcePoint" />
            <mxPoint x="740" y="260" as="targetPoint" />
          </mxGeometry>
        </mxCell>
        <mxCell id="tnMj4dc2GbIXgGItkEYh-47" value="" style="endArrow=none;html=1;rounded=0;entryX=0.5;entryY=0;entryDx=0;entryDy=0;exitX=1;exitY=1;exitDx=0;exitDy=0;" parent="1" source="tnMj4dc2GbIXgGItkEYh-6" target="tnMj4dc2GbIXgGItkEYh-38" edge="1">
          <mxGeometry width="50" height="50" relative="1" as="geometry">
            <mxPoint x="720" y="310" as="sourcePoint" />
            <mxPoint x="765" y="316" as="targetPoint" />
          </mxGeometry>
        </mxCell>
        <mxCell id="tnMj4dc2GbIXgGItkEYh-48" value="" style="endArrow=none;html=1;rounded=0;entryX=0.5;entryY=0;entryDx=0;entryDy=0;exitX=0.75;exitY=1;exitDx=0;exitDy=0;" parent="1" source="tnMj4dc2GbIXgGItkEYh-6" target="tnMj4dc2GbIXgGItkEYh-39" edge="1">
          <mxGeometry width="50" height="50" relative="1" as="geometry">
            <mxPoint x="720" y="340" as="sourcePoint" />
            <mxPoint x="780" y="380" as="targetPoint" />
          </mxGeometry>
        </mxCell>
        <mxCell id="tnMj4dc2GbIXgGItkEYh-49" value="top_name" style="ellipse;whiteSpace=wrap;html=1;" parent="1" vertex="1">
          <mxGeometry x="325" y="-325" width="100" height="40" as="geometry" />
        </mxCell>
        <mxCell id="tnMj4dc2GbIXgGItkEYh-50" value="&lt;u&gt;top_id&lt;/u&gt;" style="ellipse;whiteSpace=wrap;html=1;" parent="1" vertex="1">
          <mxGeometry x="200" y="-315" width="100" height="40" as="geometry" />
        </mxCell>
        <mxCell id="tnMj4dc2GbIXgGItkEYh-51" value="" style="endArrow=none;html=1;rounded=0;entryX=1;entryY=0.5;entryDx=0;entryDy=0;exitX=0;exitY=0.5;exitDx=0;exitDy=0;" parent="1" source="tnMj4dc2GbIXgGItkEYh-4" target="tnMj4dc2GbIXgGItkEYh-52" edge="1">
          <mxGeometry width="50" height="50" relative="1" as="geometry">
            <mxPoint x="230" y="220" as="sourcePoint" />
            <mxPoint x="280" y="170" as="targetPoint" />
          </mxGeometry>
        </mxCell>
        <mxCell id="tnMj4dc2GbIXgGItkEYh-52" value="Take" style="rhombus;whiteSpace=wrap;html=1;" parent="1" vertex="1">
          <mxGeometry x="310" y="30" width="80" height="80" as="geometry" />
        </mxCell>
        <mxCell id="tnMj4dc2GbIXgGItkEYh-53" value="" style="endArrow=none;html=1;rounded=0;entryX=1;entryY=0.5;entryDx=0;entryDy=0;shape=link;" parent="1" source="tnMj4dc2GbIXgGItkEYh-52" target="tnMj4dc2GbIXgGItkEYh-1" edge="1">
          <mxGeometry width="50" height="50" relative="1" as="geometry">
            <mxPoint x="500" y="80" as="sourcePoint" />
            <mxPoint x="400" y="80" as="targetPoint" />
          </mxGeometry>
        </mxCell>
        <mxCell id="tnMj4dc2GbIXgGItkEYh-54" value="M" style="text;html=1;align=center;verticalAlign=middle;whiteSpace=wrap;rounded=0;" parent="1" vertex="1">
          <mxGeometry x="230" y="70" width="30" height="30" as="geometry" />
        </mxCell>
        <mxCell id="tnMj4dc2GbIXgGItkEYh-56" value="M" style="text;html=1;align=center;verticalAlign=middle;whiteSpace=wrap;rounded=0;" parent="1" vertex="1">
          <mxGeometry x="450" y="70" width="30" height="30" as="geometry" />
        </mxCell>
        <mxCell id="tnMj4dc2GbIXgGItkEYh-57" value="grade" style="ellipse;whiteSpace=wrap;html=1;" parent="1" vertex="1">
          <mxGeometry x="350" y="-50" width="100" height="40" as="geometry" />
        </mxCell>
        <mxCell id="tnMj4dc2GbIXgGItkEYh-58" value="" style="endArrow=none;html=1;rounded=0;entryX=0.5;entryY=1;entryDx=0;entryDy=0;exitX=0.5;exitY=0;exitDx=0;exitDy=0;" parent="1" source="tnMj4dc2GbIXgGItkEYh-52" target="tnMj4dc2GbIXgGItkEYh-57" edge="1">
          <mxGeometry width="50" height="50" relative="1" as="geometry">
            <mxPoint x="353" y="29" as="sourcePoint" />
            <mxPoint x="385" y="-20" as="targetPoint" />
          </mxGeometry>
        </mxCell>
        <mxCell id="tnMj4dc2GbIXgGItkEYh-59" value="" style="endArrow=none;html=1;rounded=0;entryX=1;entryY=0.5;entryDx=0;entryDy=0;exitX=0;exitY=0.5;exitDx=0;exitDy=0;" parent="1" source="tnMj4dc2GbIXgGItkEYh-6" target="tnMj4dc2GbIXgGItkEYh-60" edge="1">
          <mxGeometry width="50" height="50" relative="1" as="geometry">
            <mxPoint x="580" y="300" as="sourcePoint" />
            <mxPoint x="300" y="440" as="targetPoint" />
          </mxGeometry>
        </mxCell>
        <mxCell id="tnMj4dc2GbIXgGItkEYh-60" value="located" style="rhombus;whiteSpace=wrap;html=1;" parent="1" vertex="1">
          <mxGeometry x="370" y="305" width="80" height="80" as="geometry" />
        </mxCell>
        <mxCell id="tnMj4dc2GbIXgGItkEYh-61" value="" style="endArrow=none;html=1;rounded=0;entryX=1;entryY=0.5;entryDx=0;entryDy=0;" parent="1" source="tnMj4dc2GbIXgGItkEYh-60" target="tnMj4dc2GbIXgGItkEYh-2" edge="1">
          <mxGeometry width="50" height="50" relative="1" as="geometry">
            <mxPoint x="520" y="350" as="sourcePoint" />
            <mxPoint x="240" y="340" as="targetPoint" />
          </mxGeometry>
        </mxCell>
        <mxCell id="tnMj4dc2GbIXgGItkEYh-63" value="M" style="text;html=1;align=center;verticalAlign=middle;whiteSpace=wrap;rounded=0;" parent="1" vertex="1">
          <mxGeometry x="550" y="280" width="30" height="30" as="geometry" />
        </mxCell>
        <mxCell id="tnMj4dc2GbIXgGItkEYh-64" value="1" style="text;html=1;align=center;verticalAlign=middle;whiteSpace=wrap;rounded=0;" parent="1" vertex="1">
          <mxGeometry x="230" y="320" width="30" height="22" as="geometry" />
        </mxCell>
        <mxCell id="tnMj4dc2GbIXgGItkEYh-65" value="manage" style="rhombus;whiteSpace=wrap;html=1;" parent="1" vertex="1">
          <mxGeometry x="360" y="200" width="80" height="80" as="geometry" />
        </mxCell>
        <mxCell id="tnMj4dc2GbIXgGItkEYh-66" value="" style="endArrow=none;html=1;rounded=0;entryX=1;entryY=0.5;entryDx=0;entryDy=0;exitX=0;exitY=0;exitDx=0;exitDy=0;" parent="1" source="tnMj4dc2GbIXgGItkEYh-6" target="tnMj4dc2GbIXgGItkEYh-65" edge="1">
          <mxGeometry width="50" height="50" relative="1" as="geometry">
            <mxPoint x="580" y="190" as="sourcePoint" />
            <mxPoint x="290" y="330" as="targetPoint" />
          </mxGeometry>
        </mxCell>
        <mxCell id="tnMj4dc2GbIXgGItkEYh-67" value="" style="endArrow=none;html=1;rounded=0;entryX=1;entryY=0;entryDx=0;entryDy=0;shape=link;" parent="1" source="tnMj4dc2GbIXgGItkEYh-65" target="tnMj4dc2GbIXgGItkEYh-2" edge="1">
          <mxGeometry width="50" height="50" relative="1" as="geometry">
            <mxPoint x="510" y="240" as="sourcePoint" />
            <mxPoint x="210" y="230" as="targetPoint" />
          </mxGeometry>
        </mxCell>
        <mxCell id="tnMj4dc2GbIXgGItkEYh-69" value="" style="endArrow=none;html=1;rounded=0;entryX=1;entryY=1;entryDx=0;entryDy=0;exitX=0.1;exitY=0.03;exitDx=0;exitDy=0;exitPerimeter=0;" parent="1" source="tnMj4dc2GbIXgGItkEYh-6" target="tnMj4dc2GbIXgGItkEYh-68" edge="1">
          <mxGeometry width="50" height="50" relative="1" as="geometry">
            <mxPoint x="600" y="280" as="sourcePoint" />
            <mxPoint x="450" y="250" as="targetPoint" />
          </mxGeometry>
        </mxCell>
        <mxCell id="tnMj4dc2GbIXgGItkEYh-70" value="" style="endArrow=none;html=1;rounded=0;entryX=0.25;entryY=1;entryDx=0;entryDy=0;exitX=0.5;exitY=0;exitDx=0;exitDy=0;" parent="1" source="tnMj4dc2GbIXgGItkEYh-68" target="tnMj4dc2GbIXgGItkEYh-4" edge="1">
          <mxGeometry width="50" height="50" relative="1" as="geometry">
            <mxPoint x="600" y="172" as="sourcePoint" />
            <mxPoint x="528" y="110" as="targetPoint" />
          </mxGeometry>
        </mxCell>
        <mxCell id="tnMj4dc2GbIXgGItkEYh-71" value="M" style="text;html=1;align=center;verticalAlign=middle;whiteSpace=wrap;rounded=0;" parent="1" vertex="1">
          <mxGeometry x="490" y="100" width="30" height="30" as="geometry" />
        </mxCell>
        <mxCell id="tnMj4dc2GbIXgGItkEYh-72" value="M" style="text;html=1;align=center;verticalAlign=middle;whiteSpace=wrap;rounded=0;" parent="1" vertex="1">
          <mxGeometry x="580" y="240" width="30" height="30" as="geometry" />
        </mxCell>
        <mxCell id="tnMj4dc2GbIXgGItkEYh-73" value="evaluation" style="ellipse;whiteSpace=wrap;html=1;" parent="1" vertex="1">
          <mxGeometry x="380" y="120" width="100" height="40" as="geometry" />
        </mxCell>
        <mxCell id="tnMj4dc2GbIXgGItkEYh-74" value="" style="endArrow=none;html=1;rounded=0;entryX=0.5;entryY=1;entryDx=0;entryDy=0;exitX=0;exitY=0.5;exitDx=0;exitDy=0;" parent="1" source="tnMj4dc2GbIXgGItkEYh-68" target="tnMj4dc2GbIXgGItkEYh-73" edge="1">
          <mxGeometry width="50" height="50" relative="1" as="geometry">
            <mxPoint x="420" y="200" as="sourcePoint" />
            <mxPoint x="495" y="56" as="targetPoint" />
          </mxGeometry>
        </mxCell>
        <mxCell id="tnMj4dc2GbIXgGItkEYh-75" value="1" style="text;html=1;align=center;verticalAlign=middle;whiteSpace=wrap;rounded=0;" parent="1" vertex="1">
          <mxGeometry x="210" y="284" width="30" height="22" as="geometry" />
        </mxCell>
        <mxCell id="tnMj4dc2GbIXgGItkEYh-76" value="1" style="text;html=1;align=center;verticalAlign=middle;whiteSpace=wrap;rounded=0;" parent="1" vertex="1">
          <mxGeometry x="540" y="244" width="30" height="22" as="geometry" />
        </mxCell>
        <mxCell id="tnMj4dc2GbIXgGItkEYh-78" value="" style="group" parent="1" vertex="1" connectable="0">
          <mxGeometry x="470" y="150" width="80" height="80" as="geometry" />
        </mxCell>
        <mxCell id="tnMj4dc2GbIXgGItkEYh-68" value="teach" style="rhombus;whiteSpace=wrap;html=1;" parent="tnMj4dc2GbIXgGItkEYh-78" vertex="1">
          <mxGeometry width="80" height="80" as="geometry" />
        </mxCell>
        <mxCell id="tnMj4dc2GbIXgGItkEYh-77" value="teach" style="rhombus;whiteSpace=wrap;html=1;" parent="tnMj4dc2GbIXgGItkEYh-78" vertex="1">
          <mxGeometry x="5.5" y="5" width="70" height="70" as="geometry" />
        </mxCell>
        <mxCell id="tnMj4dc2GbIXgGItkEYh-81" value="classified" style="rhombus;whiteSpace=wrap;html=1;" parent="1" vertex="1">
          <mxGeometry x="440" y="-130" width="80" height="80" as="geometry" />
        </mxCell>
        <mxCell id="tnMj4dc2GbIXgGItkEYh-83" value="" style="endArrow=none;html=1;rounded=0;entryX=1;entryY=1;entryDx=0;entryDy=0;exitX=0;exitY=0.5;exitDx=0;exitDy=0;" parent="1" source="tnMj4dc2GbIXgGItkEYh-5" target="tnMj4dc2GbIXgGItkEYh-50" edge="1">
          <mxGeometry width="50" height="50" relative="1" as="geometry">
            <mxPoint x="278" y="-206" as="sourcePoint" />
            <mxPoint x="300" y="-275" as="targetPoint" />
          </mxGeometry>
        </mxCell>
        <mxCell id="tnMj4dc2GbIXgGItkEYh-84" value="" style="endArrow=none;html=1;rounded=0;entryX=0.5;entryY=1;entryDx=0;entryDy=0;exitX=0.5;exitY=0;exitDx=0;exitDy=0;" parent="1" source="tnMj4dc2GbIXgGItkEYh-5" target="tnMj4dc2GbIXgGItkEYh-49" edge="1">
          <mxGeometry width="50" height="50" relative="1" as="geometry">
            <mxPoint x="340" y="-185" as="sourcePoint" />
            <mxPoint x="295" y="-271" as="targetPoint" />
          </mxGeometry>
        </mxCell>
        <mxCell id="tnMj4dc2GbIXgGItkEYh-85" value="M" style="text;html=1;align=center;verticalAlign=middle;whiteSpace=wrap;rounded=0;" parent="1" vertex="1">
          <mxGeometry x="490" y="10" width="30" height="30" as="geometry" />
        </mxCell>
        <mxCell id="tnMj4dc2GbIXgGItkEYh-86" value="1" style="text;html=1;align=center;verticalAlign=middle;whiteSpace=wrap;rounded=0;" parent="1" vertex="1">
          <mxGeometry x="377" y="-160" width="30" height="22" as="geometry" />
        </mxCell>
        <mxCell id="tnMj4dc2GbIXgGItkEYh-88" value="" style="group" parent="1" vertex="1" connectable="0">
          <mxGeometry x="445" y="-125" width="70" height="70" as="geometry" />
        </mxCell>
        <mxCell id="tnMj4dc2GbIXgGItkEYh-80" value="" style="endArrow=none;html=1;rounded=0;entryX=1;entryY=1;entryDx=0;entryDy=0;exitX=0.25;exitY=0;exitDx=0;exitDy=0;shape=link;" parent="tnMj4dc2GbIXgGItkEYh-88" source="tnMj4dc2GbIXgGItkEYh-4" target="tnMj4dc2GbIXgGItkEYh-81" edge="1">
          <mxGeometry width="50" height="50" relative="1" as="geometry">
            <mxPoint x="95" y="-210" as="sourcePoint" />
            <mxPoint x="-95" y="-80" as="targetPoint" />
          </mxGeometry>
        </mxCell>
        <mxCell id="tnMj4dc2GbIXgGItkEYh-82" value="" style="endArrow=none;html=1;rounded=0;entryX=0.5;entryY=1;entryDx=0;entryDy=0;" parent="tnMj4dc2GbIXgGItkEYh-88" source="tnMj4dc2GbIXgGItkEYh-81" target="tnMj4dc2GbIXgGItkEYh-5" edge="1">
          <mxGeometry width="50" height="50" relative="1" as="geometry">
            <mxPoint x="175" y="515" as="sourcePoint" />
            <mxPoint x="-125" y="505" as="targetPoint" />
          </mxGeometry>
        </mxCell>
        <mxCell id="tnMj4dc2GbIXgGItkEYh-87" value="classified" style="rhombus;whiteSpace=wrap;html=1;" parent="tnMj4dc2GbIXgGItkEYh-88" vertex="1">
          <mxGeometry width="70" height="70" as="geometry" />
        </mxCell>
        <mxCell id="tnMj4dc2GbIXgGItkEYh-90" value="has" style="rhombus;whiteSpace=wrap;html=1;" parent="1" vertex="1">
          <mxGeometry x="110" y="164" width="80" height="80" as="geometry" />
        </mxCell>
        <mxCell id="tnMj4dc2GbIXgGItkEYh-91" value="" style="endArrow=none;html=1;rounded=0;entryX=0.5;entryY=0;entryDx=0;entryDy=0;exitX=0.5;exitY=1;exitDx=0;exitDy=0;shape=link;" parent="1" source="tnMj4dc2GbIXgGItkEYh-1" target="tnMj4dc2GbIXgGItkEYh-90" edge="1">
          <mxGeometry width="50" height="50" relative="1" as="geometry">
            <mxPoint x="250" y="180" as="sourcePoint" />
            <mxPoint x="100" y="150" as="targetPoint" />
          </mxGeometry>
        </mxCell>
        <mxCell id="tnMj4dc2GbIXgGItkEYh-92" value="" style="endArrow=none;html=1;rounded=0;entryX=0.5;entryY=1;entryDx=0;entryDy=0;exitX=0.5;exitY=0;exitDx=0;exitDy=0;" parent="1" source="tnMj4dc2GbIXgGItkEYh-2" target="tnMj4dc2GbIXgGItkEYh-90" edge="1">
          <mxGeometry width="50" height="50" relative="1" as="geometry">
            <mxPoint x="170" y="110" as="sourcePoint" />
            <mxPoint x="160" y="174" as="targetPoint" />
          </mxGeometry>
        </mxCell>
        <mxCell id="Enpf5vp9B_4J1mqtQNKp-1" value="1" style="text;html=1;align=center;verticalAlign=middle;whiteSpace=wrap;rounded=0;" parent="1" vertex="1">
          <mxGeometry x="120" y="283" width="30" height="22" as="geometry" />
        </mxCell>
        <mxCell id="Enpf5vp9B_4J1mqtQNKp-2" value="M" style="text;html=1;align=center;verticalAlign=middle;whiteSpace=wrap;rounded=0;" parent="1" vertex="1">
          <mxGeometry x="120" y="100" width="30" height="30" as="geometry" />
        </mxCell>
        <mxCell id="BlUNrkRk35IxwMllR4_r-3" value="Mucian" style="rounded=0;whiteSpace=wrap;html=1;" vertex="1" parent="1">
          <mxGeometry x="140" y="680" width="120" height="60" as="geometry" />
        </mxCell>
        <mxCell id="BlUNrkRk35IxwMllR4_r-4" value="" style="endArrow=none;html=1;rounded=0;entryX=1;entryY=0.5;entryDx=0;entryDy=0;exitX=0;exitY=0.5;exitDx=0;exitDy=0;" edge="1" source="BlUNrkRk35IxwMllR4_r-3" target="BlUNrkRk35IxwMllR4_r-5" parent="1">
          <mxGeometry width="50" height="50" relative="1" as="geometry">
            <mxPoint x="150" y="705" as="sourcePoint" />
            <mxPoint x="50" y="660" as="targetPoint" />
          </mxGeometry>
        </mxCell>
        <mxCell id="BlUNrkRk35IxwMllR4_r-5" value="address" style="ellipse;whiteSpace=wrap;html=1;" vertex="1" parent="1">
          <mxGeometry x="-20" y="710" width="100" height="40" as="geometry" />
        </mxCell>
        <mxCell id="BlUNrkRk35IxwMllR4_r-6" value="" style="endArrow=none;html=1;rounded=0;entryX=0.5;entryY=1;entryDx=0;entryDy=0;exitX=0;exitY=0.25;exitDx=0;exitDy=0;" edge="1" source="BlUNrkRk35IxwMllR4_r-3" target="BlUNrkRk35IxwMllR4_r-7" parent="1">
          <mxGeometry width="50" height="50" relative="1" as="geometry">
            <mxPoint x="140" y="660" as="sourcePoint" />
            <mxPoint x="70" y="650" as="targetPoint" />
          </mxGeometry>
        </mxCell>
        <mxCell id="BlUNrkRk35IxwMllR4_r-7" value="&lt;u&gt;ID_NUM&lt;/u&gt;" style="ellipse;whiteSpace=wrap;html=1;" vertex="1" parent="1">
          <mxGeometry x="-10" y="610" width="100" height="40" as="geometry" />
        </mxCell>
        <mxCell id="BlUNrkRk35IxwMllR4_r-8" value="city" style="ellipse;whiteSpace=wrap;html=1;" vertex="1" parent="1">
          <mxGeometry x="-160" y="680" width="100" height="40" as="geometry" />
        </mxCell>
        <mxCell id="BlUNrkRk35IxwMllR4_r-9" value="street" style="ellipse;whiteSpace=wrap;html=1;" vertex="1" parent="1">
          <mxGeometry x="-160" y="750" width="100" height="40" as="geometry" />
        </mxCell>
        <mxCell id="BlUNrkRk35IxwMllR4_r-10" value="" style="endArrow=none;html=1;rounded=0;entryX=1;entryY=0;entryDx=0;entryDy=0;exitX=0;exitY=0.5;exitDx=0;exitDy=0;" edge="1" parent="1" source="BlUNrkRk35IxwMllR4_r-5" target="BlUNrkRk35IxwMllR4_r-9">
          <mxGeometry width="50" height="50" relative="1" as="geometry">
            <mxPoint x="-10" y="750" as="sourcePoint" />
            <mxPoint x="-70" y="770" as="targetPoint" />
          </mxGeometry>
        </mxCell>
        <mxCell id="BlUNrkRk35IxwMllR4_r-11" value="" style="endArrow=none;html=1;rounded=0;entryX=1;entryY=0.5;entryDx=0;entryDy=0;exitX=0;exitY=0;exitDx=0;exitDy=0;" edge="1" parent="1" source="BlUNrkRk35IxwMllR4_r-5" target="BlUNrkRk35IxwMllR4_r-8">
          <mxGeometry width="50" height="50" relative="1" as="geometry">
            <mxPoint x="-10" y="740" as="sourcePoint" />
            <mxPoint x="-65" y="766" as="targetPoint" />
          </mxGeometry>
        </mxCell>
        <mxCell id="BlUNrkRk35IxwMllR4_r-12" value="phone" style="ellipse;whiteSpace=wrap;html=1;" vertex="1" parent="1">
          <mxGeometry x="110" y="590" width="100" height="40" as="geometry" />
        </mxCell>
        <mxCell id="BlUNrkRk35IxwMllR4_r-13" value="" style="endArrow=none;html=1;rounded=0;entryX=0.5;entryY=1;entryDx=0;entryDy=0;exitX=0.25;exitY=0;exitDx=0;exitDy=0;" edge="1" parent="1" source="BlUNrkRk35IxwMllR4_r-3" target="BlUNrkRk35IxwMllR4_r-12">
          <mxGeometry width="50" height="50" relative="1" as="geometry">
            <mxPoint x="150" y="720" as="sourcePoint" />
            <mxPoint x="90" y="740" as="targetPoint" />
          </mxGeometry>
        </mxCell>
        <mxCell id="BlUNrkRk35IxwMllR4_r-14" value="Instrument" style="rounded=0;whiteSpace=wrap;html=1;" vertex="1" parent="1">
          <mxGeometry x="140" y="980" width="120" height="60" as="geometry" />
        </mxCell>
        <mxCell id="BlUNrkRk35IxwMllR4_r-15" value="Instruments" style="rounded=0;whiteSpace=wrap;html=1;" vertex="1" parent="1">
          <mxGeometry x="140" y="980" width="120" height="60" as="geometry" />
        </mxCell>
        <mxCell id="BlUNrkRk35IxwMllR4_r-16" value="" style="endArrow=none;html=1;rounded=0;entryX=1;entryY=0.5;entryDx=0;entryDy=0;exitX=0;exitY=0.5;exitDx=0;exitDy=0;" edge="1" source="BlUNrkRk35IxwMllR4_r-15" target="BlUNrkRk35IxwMllR4_r-17" parent="1">
          <mxGeometry width="50" height="50" relative="1" as="geometry">
            <mxPoint x="150" y="1005" as="sourcePoint" />
            <mxPoint x="50" y="960" as="targetPoint" />
          </mxGeometry>
        </mxCell>
        <mxCell id="BlUNrkRk35IxwMllR4_r-17" value="musical_key" style="ellipse;whiteSpace=wrap;html=1;" vertex="1" parent="1">
          <mxGeometry x="-20" y="1010" width="100" height="40" as="geometry" />
        </mxCell>
        <mxCell id="BlUNrkRk35IxwMllR4_r-18" value="" style="endArrow=none;html=1;rounded=0;entryX=0.5;entryY=1;entryDx=0;entryDy=0;exitX=0;exitY=0.25;exitDx=0;exitDy=0;" edge="1" source="BlUNrkRk35IxwMllR4_r-15" target="BlUNrkRk35IxwMllR4_r-19" parent="1">
          <mxGeometry width="50" height="50" relative="1" as="geometry">
            <mxPoint x="140" y="960" as="sourcePoint" />
            <mxPoint x="70" y="950" as="targetPoint" />
          </mxGeometry>
        </mxCell>
        <mxCell id="BlUNrkRk35IxwMllR4_r-19" value="&lt;u&gt;uq_name&lt;/u&gt;" style="ellipse;whiteSpace=wrap;html=1;" vertex="1" parent="1">
          <mxGeometry x="-10" y="910" width="100" height="40" as="geometry" />
        </mxCell>
        <mxCell id="BlUNrkRk35IxwMllR4_r-22" value="Instrument" style="rounded=0;whiteSpace=wrap;html=1;" vertex="1" parent="1">
          <mxGeometry x="680" y="970" width="120" height="60" as="geometry" />
        </mxCell>
        <mxCell id="BlUNrkRk35IxwMllR4_r-23" value="Albume" style="rounded=0;whiteSpace=wrap;html=1;" vertex="1" parent="1">
          <mxGeometry x="680" y="970" width="120" height="60" as="geometry" />
        </mxCell>
        <mxCell id="BlUNrkRk35IxwMllR4_r-24" value="" style="endArrow=none;html=1;rounded=0;entryX=1;entryY=0.5;entryDx=0;entryDy=0;exitX=1;exitY=1;exitDx=0;exitDy=0;" edge="1" source="BlUNrkRk35IxwMllR4_r-23" target="BlUNrkRk35IxwMllR4_r-25" parent="1">
          <mxGeometry width="50" height="50" relative="1" as="geometry">
            <mxPoint x="690" y="995" as="sourcePoint" />
            <mxPoint x="590" y="950" as="targetPoint" />
          </mxGeometry>
        </mxCell>
        <mxCell id="BlUNrkRk35IxwMllR4_r-25" value="copy_rights" style="ellipse;whiteSpace=wrap;html=1;" vertex="1" parent="1">
          <mxGeometry x="890" y="1050" width="100" height="40" as="geometry" />
        </mxCell>
        <mxCell id="BlUNrkRk35IxwMllR4_r-26" value="" style="endArrow=none;html=1;rounded=0;exitX=1;exitY=0.5;exitDx=0;exitDy=0;entryX=0;entryY=0.5;entryDx=0;entryDy=0;" edge="1" source="BlUNrkRk35IxwMllR4_r-23" target="BlUNrkRk35IxwMllR4_r-27" parent="1">
          <mxGeometry width="50" height="50" relative="1" as="geometry">
            <mxPoint x="680" y="950" as="sourcePoint" />
            <mxPoint x="860" y="990" as="targetPoint" />
          </mxGeometry>
        </mxCell>
        <mxCell id="BlUNrkRk35IxwMllR4_r-27" value="&lt;u&gt;alboum_id&lt;/u&gt;" style="ellipse;whiteSpace=wrap;html=1;" vertex="1" parent="1">
          <mxGeometry x="890" y="950" width="100" height="40" as="geometry" />
        </mxCell>
        <mxCell id="BlUNrkRk35IxwMllR4_r-28" value="copy_rights" style="ellipse;whiteSpace=wrap;html=1;" vertex="1" parent="1">
          <mxGeometry x="600" y="1080" width="100" height="40" as="geometry" />
        </mxCell>
        <mxCell id="BlUNrkRk35IxwMllR4_r-29" value="" style="endArrow=none;html=1;rounded=0;entryX=1;entryY=0.5;entryDx=0;entryDy=0;exitX=0.5;exitY=1;exitDx=0;exitDy=0;" edge="1" target="BlUNrkRk35IxwMllR4_r-28" parent="1" source="BlUNrkRk35IxwMllR4_r-23">
          <mxGeometry width="50" height="50" relative="1" as="geometry">
            <mxPoint x="679" y="1040" as="sourcePoint" />
            <mxPoint x="300" y="980" as="targetPoint" />
          </mxGeometry>
        </mxCell>
        <mxCell id="BlUNrkRk35IxwMllR4_r-30" value="title" style="ellipse;whiteSpace=wrap;html=1;" vertex="1" parent="1">
          <mxGeometry x="740" y="1090" width="100" height="40" as="geometry" />
        </mxCell>
        <mxCell id="BlUNrkRk35IxwMllR4_r-31" value="" style="endArrow=none;html=1;rounded=0;exitX=0.75;exitY=1;exitDx=0;exitDy=0;" edge="1" parent="1" target="BlUNrkRk35IxwMllR4_r-30" source="BlUNrkRk35IxwMllR4_r-23">
          <mxGeometry width="50" height="50" relative="1" as="geometry">
            <mxPoint x="880" y="1040" as="sourcePoint" />
            <mxPoint x="440" y="990" as="targetPoint" />
          </mxGeometry>
        </mxCell>
        <mxCell id="BlUNrkRk35IxwMllR4_r-32" value="song" style="rounded=0;whiteSpace=wrap;html=1;" vertex="1" parent="1">
          <mxGeometry x="490" y="630" width="120" height="60" as="geometry" />
        </mxCell>
        <mxCell id="BlUNrkRk35IxwMllR4_r-35" value="" style="endArrow=none;html=1;rounded=0;entryX=0.5;entryY=1;entryDx=0;entryDy=0;exitX=0.378;exitY=0.036;exitDx=0;exitDy=0;exitPerimeter=0;" edge="1" source="BlUNrkRk35IxwMllR4_r-32" target="BlUNrkRk35IxwMllR4_r-36" parent="1">
          <mxGeometry width="50" height="50" relative="1" as="geometry">
            <mxPoint x="600" y="630" as="sourcePoint" />
            <mxPoint x="530" y="620" as="targetPoint" />
          </mxGeometry>
        </mxCell>
        <mxCell id="BlUNrkRk35IxwMllR4_r-36" value="&lt;u&gt;unq_title&lt;/u&gt;" style="ellipse;whiteSpace=wrap;html=1;" vertex="1" parent="1">
          <mxGeometry x="450" y="580" width="100" height="40" as="geometry" />
        </mxCell>
        <mxCell id="BlUNrkRk35IxwMllR4_r-37" value="author" style="ellipse;whiteSpace=wrap;html=1;" vertex="1" parent="1">
          <mxGeometry x="570" y="560" width="100" height="40" as="geometry" />
        </mxCell>
        <mxCell id="BlUNrkRk35IxwMllR4_r-38" value="" style="endArrow=none;html=1;rounded=0;entryX=0.5;entryY=1;entryDx=0;entryDy=0;exitX=0.75;exitY=0;exitDx=0;exitDy=0;" edge="1" source="BlUNrkRk35IxwMllR4_r-32" target="BlUNrkRk35IxwMllR4_r-37" parent="1">
          <mxGeometry width="50" height="50" relative="1" as="geometry">
            <mxPoint x="610" y="690" as="sourcePoint" />
            <mxPoint x="550" y="710" as="targetPoint" />
          </mxGeometry>
        </mxCell>
        <mxCell id="BlUNrkRk35IxwMllR4_r-39" value="played" style="rhombus;whiteSpace=wrap;html=1;" vertex="1" parent="1">
          <mxGeometry x="160" y="810" width="80" height="80" as="geometry" />
        </mxCell>
        <mxCell id="BlUNrkRk35IxwMllR4_r-42" value="" style="endArrow=none;html=1;rounded=0;entryX=0.5;entryY=1;entryDx=0;entryDy=0;exitX=0.5;exitY=0;exitDx=0;exitDy=0;" edge="1" parent="1" source="BlUNrkRk35IxwMllR4_r-39" target="BlUNrkRk35IxwMllR4_r-3">
          <mxGeometry width="50" height="50" relative="1" as="geometry">
            <mxPoint x="370" y="780" as="sourcePoint" />
            <mxPoint x="420" y="730" as="targetPoint" />
          </mxGeometry>
        </mxCell>
        <mxCell id="BlUNrkRk35IxwMllR4_r-43" value="" style="endArrow=none;html=1;rounded=0;entryX=0.5;entryY=1;entryDx=0;entryDy=0;exitX=0.5;exitY=0;exitDx=0;exitDy=0;" edge="1" parent="1" source="BlUNrkRk35IxwMllR4_r-15" target="BlUNrkRk35IxwMllR4_r-39">
          <mxGeometry width="50" height="50" relative="1" as="geometry">
            <mxPoint x="199" y="960" as="sourcePoint" />
            <mxPoint x="199" y="890" as="targetPoint" />
          </mxGeometry>
        </mxCell>
        <mxCell id="BlUNrkRk35IxwMllR4_r-48" value="" style="rhombus;whiteSpace=wrap;html=1;strokeWidth=1;perimeterSpacing=0;fillColor=none;" vertex="1" parent="1">
          <mxGeometry x="150" y="800" width="100" height="100" as="geometry" />
        </mxCell>
        <mxCell id="BlUNrkRk35IxwMllR4_r-49" value="M" style="text;html=1;align=center;verticalAlign=middle;whiteSpace=wrap;rounded=0;" vertex="1" parent="1">
          <mxGeometry x="560" y="690" width="20" height="30" as="geometry" />
        </mxCell>
        <mxCell id="BlUNrkRk35IxwMllR4_r-52" value="M" style="text;html=1;align=center;verticalAlign=middle;whiteSpace=wrap;rounded=0;" vertex="1" parent="1">
          <mxGeometry x="200" y="950" width="20" height="30" as="geometry" />
        </mxCell>
        <mxCell id="BlUNrkRk35IxwMllR4_r-53" value="1" style="text;html=1;align=center;verticalAlign=middle;whiteSpace=wrap;rounded=0;" vertex="1" parent="1">
          <mxGeometry x="710" y="940" width="20" height="30" as="geometry" />
        </mxCell>
        <mxCell id="BlUNrkRk35IxwMllR4_r-54" value="perform" style="rhombus;whiteSpace=wrap;html=1;" vertex="1" parent="1">
          <mxGeometry x="330" y="670" width="80" height="80" as="geometry" />
        </mxCell>
        <mxCell id="BlUNrkRk35IxwMllR4_r-55" value="" style="endArrow=none;html=1;rounded=0;entryX=0;entryY=0.5;entryDx=0;entryDy=0;exitX=1;exitY=1;exitDx=0;exitDy=0;" edge="1" parent="1" source="BlUNrkRk35IxwMllR4_r-3" target="BlUNrkRk35IxwMllR4_r-54">
          <mxGeometry width="50" height="50" relative="1" as="geometry">
            <mxPoint x="347" y="870" as="sourcePoint" />
            <mxPoint x="377" y="800" as="targetPoint" />
          </mxGeometry>
        </mxCell>
        <mxCell id="BlUNrkRk35IxwMllR4_r-56" value="" style="endArrow=none;html=1;rounded=0;entryX=1;entryY=0.5;entryDx=0;entryDy=0;exitX=0;exitY=0.5;exitDx=0;exitDy=0;shape=link;" edge="1" parent="1" target="BlUNrkRk35IxwMllR4_r-54" source="BlUNrkRk35IxwMllR4_r-32">
          <mxGeometry width="50" height="50" relative="1" as="geometry">
            <mxPoint x="537" y="1080" as="sourcePoint" />
            <mxPoint x="176" y="980" as="targetPoint" />
            <Array as="points" />
          </mxGeometry>
        </mxCell>
        <mxCell id="BlUNrkRk35IxwMllR4_r-59" value="M" style="text;html=1;align=center;verticalAlign=middle;whiteSpace=wrap;rounded=0;" vertex="1" parent="1">
          <mxGeometry x="210" y="740" width="20" height="30" as="geometry" />
        </mxCell>
        <mxCell id="BlUNrkRk35IxwMllR4_r-60" value="M" style="text;html=1;align=center;verticalAlign=middle;whiteSpace=wrap;rounded=0;" vertex="1" parent="1">
          <mxGeometry x="270" y="700" width="20" height="30" as="geometry" />
        </mxCell>
        <mxCell id="BlUNrkRk35IxwMllR4_r-61" value="M" style="text;html=1;align=center;verticalAlign=middle;whiteSpace=wrap;rounded=0;" vertex="1" parent="1">
          <mxGeometry x="450" y="630" width="20" height="30" as="geometry" />
        </mxCell>
        <mxCell id="BlUNrkRk35IxwMllR4_r-62" value="" style="endArrow=none;html=1;rounded=0;entryX=1;entryY=0.5;entryDx=0;entryDy=0;exitX=0;exitY=0.5;exitDx=0;exitDy=0;shape=link;" edge="1" target="BlUNrkRk35IxwMllR4_r-64" parent="1" source="BlUNrkRk35IxwMllR4_r-23">
          <mxGeometry width="50" height="50" relative="1" as="geometry">
            <mxPoint x="550" y="890" as="sourcePoint" />
            <mxPoint x="236" y="1210" as="targetPoint" />
            <Array as="points" />
          </mxGeometry>
        </mxCell>
        <mxCell id="BlUNrkRk35IxwMllR4_r-63" value="" style="endArrow=none;html=1;rounded=0;entryX=0;entryY=0.5;entryDx=0;entryDy=0;exitX=0.84;exitY=1.037;exitDx=0;exitDy=0;exitPerimeter=0;" edge="1" target="BlUNrkRk35IxwMllR4_r-64" parent="1" source="BlUNrkRk35IxwMllR4_r-3">
          <mxGeometry width="50" height="50" relative="1" as="geometry">
            <mxPoint x="320" y="970" as="sourcePoint" />
            <mxPoint x="437" y="1030" as="targetPoint" />
          </mxGeometry>
        </mxCell>
        <mxCell id="BlUNrkRk35IxwMllR4_r-64" value="produce&amp;nbsp;" style="rhombus;whiteSpace=wrap;html=1;" vertex="1" parent="1">
          <mxGeometry x="390" y="900" width="80" height="80" as="geometry" />
        </mxCell>
        <mxCell id="BlUNrkRk35IxwMllR4_r-66" value="M" style="text;html=1;align=center;verticalAlign=middle;whiteSpace=wrap;rounded=0;" vertex="1" parent="1">
          <mxGeometry x="640" y="995" width="20" height="30" as="geometry" />
        </mxCell>
        <mxCell id="BlUNrkRk35IxwMllR4_r-67" value="1" style="text;html=1;align=center;verticalAlign=middle;whiteSpace=wrap;rounded=0;" vertex="1" parent="1">
          <mxGeometry x="260" y="740" width="20" height="30" as="geometry" />
        </mxCell>
      </root>
    </mxGraphModel>
  </diagram>
</mxfile>
